<svg width="651" height="269" viewBox="0 0 651 269" fill="none" xmlns="http://www.w3.org/2000/svg">
<g clip-path="url(#clip0_1_147)">
<path d="M331.005 242.579L333.539 234.327C330.49 230.971 326.668 228.411 322.405 226.867C326.57 233.767 322.535 242.769 324.216 250.651C324.76 253.105 325.848 255.406 327.402 257.382C328.955 259.358 330.933 260.96 333.19 262.068L337.035 266.832C339.051 263.31 340.279 259.393 340.635 255.351C340.992 251.309 340.467 247.237 339.098 243.417C338.309 241.281 337.254 239.254 335.959 237.382C333.674 240.068 331.005 242.579 331.005 242.579Z" fill="#F2F2F2"/>
<path d="M317.072 243.633L315.66 235.117C311.435 233.473 306.872 232.886 302.368 233.406C309.173 237.724 309.575 247.581 314.596 253.886C316.177 255.84 318.177 257.414 320.449 258.49C322.721 259.566 325.206 260.117 327.719 260.102L333.286 262.652C333.519 258.601 332.872 254.547 331.388 250.77C329.904 246.993 327.619 243.583 324.69 240.774C323.031 239.214 321.183 237.87 319.188 236.773C318.341 240.196 317.072 243.633 317.072 243.633Z" fill="#F2F2F2"/>
<path d="M400.004 264.714L396.1 264.714L394.244 249.66L400.004 249.66L400.004 264.714Z" fill="#FFB6B6"/>
<path d="M400.999 268.498L388.414 268.497V268.338C388.414 267.039 388.93 265.793 389.849 264.874C390.768 263.956 392.014 263.44 393.313 263.44H393.313L395.612 261.696L399.901 263.44L401 263.44L400.999 268.498Z" fill="#2F2E41"/>
<path d="M463.053 250.478L460.392 253.333L448.113 244.427L452.04 240.213L463.053 250.478Z" fill="#FFB6B6"/>
<path d="M466.5 252.329L457.919 261.535L457.803 261.427C456.852 260.541 456.293 259.314 456.247 258.016C456.202 256.717 456.673 255.454 457.559 254.504L457.559 254.503L457.851 251.633L462.051 249.684L462.8 248.881L466.5 252.329Z" fill="#2F2E41"/>
<path d="M457.278 242.017L453.152 250.645L427.819 233.872L424.134 228.851L412.05 212.387L407.138 220.181L403.72 228.329C402.606 229.055 401.668 230.02 400.972 231.153C400.277 232.287 399.841 233.561 399.698 234.883L399.542 236.325L401.701 255.741L393.493 258.262L388.778 232.179L390.319 226.528L391.906 218.594L399.894 193.524H421.272L433.533 219.623L434.429 224.941L437.906 228.931L457.278 242.017Z" fill="#2F2E41"/>
<path d="M412.852 152.507L416.45 155.248L420.79 156.581C420.79 156.581 422.584 181.819 424.201 183.436C425.818 185.052 424.36 185.096 424.684 187.196C425.009 189.296 425.799 193.601 425.799 193.601C414.886 199.377 405.479 199.532 397.922 192.773C397.825 192.355 397.875 191.916 398.061 191.53C398.248 191.143 398.561 190.832 398.949 190.648C400.355 189.902 397.653 186.419 398.802 185.837C399.951 185.254 398.335 180.202 398.335 180.202L399.395 169.662L398.557 167.977L400.602 157.667L404.15 156.371L405.567 152.956L412.852 152.507Z" fill="#020D1B"/>
<path d="M415.106 197.363C415.09 196.907 415.174 196.454 415.352 196.034C415.531 195.614 415.799 195.238 416.138 194.933C416.477 194.628 416.879 194.401 417.315 194.269C417.751 194.136 418.211 194.1 418.663 194.164L423.735 184.307L426.56 189.327L421.311 197.918C421.153 198.67 420.724 199.337 420.107 199.794C419.49 200.25 418.727 200.465 417.962 200.396C417.197 200.328 416.484 199.981 415.958 199.422C415.431 198.863 415.129 198.131 415.106 197.363H415.106Z" fill="#FFB6B6"/>
<path d="M423.648 194.952L434.526 178.092L434.49 178.015C434.449 177.926 431.985 172.606 429.599 167.733C429.231 166.983 428.865 166.243 428.51 165.534C428.357 165.228 428.206 164.929 428.058 164.636C427.055 162.66 426.18 161.026 425.657 160.25C424.5 158.496 422.779 157.19 420.778 156.549L420.727 156.536L420.679 156.556C419.7 156.969 418.892 157.703 418.386 158.638C417.88 159.572 417.709 160.651 417.898 161.696C418.842 166.738 420.944 171.491 424.04 175.581L425.803 177.906L419.675 191.229L423.648 194.952Z" fill="#020D1B"/>
<path d="M386.241 130.327C386.541 130.671 386.761 131.076 386.887 131.514C387.013 131.953 387.042 132.413 386.97 132.864C386.899 133.314 386.73 133.743 386.474 134.121C386.219 134.499 385.884 134.817 385.493 135.051L387.76 145.903L382.404 143.782L381.072 133.802C380.722 133.119 380.634 132.331 380.826 131.588C381.018 130.844 381.476 130.197 382.113 129.768C382.75 129.34 383.522 129.16 384.283 129.263C385.044 129.366 385.741 129.744 386.241 130.327H386.241Z" fill="#FFB6B6"/>
<path d="M381.125 137.578L383.291 157.525L383.368 157.563C383.431 157.594 386.175 158.94 389.544 160.543C390.112 160.813 390.031 161.985 390.624 162.265C391.034 162.457 392.114 161.758 392.527 161.951C396.209 163.673 399.932 165.347 401.416 165.801C403.419 166.435 405.579 166.366 407.537 165.604L407.584 165.582L407.609 165.536C408.109 164.599 408.275 163.519 408.079 162.475C407.884 161.431 407.338 160.484 406.532 159.792C402.625 156.47 397.998 154.101 393.018 152.873L390.184 152.177L386.555 137.968L381.125 137.578Z" fill="#020D1B"/>
<path d="M409.016 151.377C412.947 151.377 416.134 148.19 416.134 144.259C416.134 140.328 412.947 137.141 409.016 137.141C405.084 137.141 401.897 140.328 401.897 144.259C401.897 148.19 405.084 151.377 409.016 151.377Z" fill="#FFB6B6"/>
<path d="M401.948 139.489C402.534 137.786 405.448 136.605 410.172 136.441C414.896 136.277 416.094 141.844 416.094 141.844C419.248 144.402 412.727 151.251 412.411 151.005L412.553 149.718C412.788 147.586 413.786 145.923 412.517 143.702L411.298 143.716C409.723 144.019 408.149 144.321 406.575 144.624L408.439 142.983L408.386 142.902C407.593 143.315 406.731 143.577 405.842 143.674C404.84 143.733 403.745 143.334 403.266 142.453C403.137 142.211 403.059 141.945 403.035 141.672C401.685 142.212 401.067 143.877 401.067 143.877C401.067 143.877 401.363 141.192 401.948 139.489Z" fill="#2F2E41"/>
<path d="M263.179 139.916C263.083 139.794 262.979 139.677 262.868 139.568C262.895 139.53 262.922 139.49 262.949 139.453L263.179 139.916Z" fill="#2F2E41"/>
<path d="M264.563 168.545C263.399 170.614 261.073 171.768 258.768 172.333C256.179 173.011 253.453 172.959 250.892 172.181C250.567 172.076 250.242 171.954 249.927 171.819C250.078 171.417 250.198 171.004 250.286 170.583C250.404 170.014 250.463 169.435 250.462 168.854C250.205 169.354 249.873 169.812 249.477 170.211C249.171 170.532 248.824 170.811 248.445 171.04C247.267 170.326 246.248 169.379 245.449 168.258C245.5 168.133 245.551 168.007 245.598 167.882C245.844 167.228 246.038 166.556 246.18 165.871C246.372 164.946 246.469 164.004 246.468 163.059C246.05 163.873 245.509 164.617 244.863 165.266C244.67 165.473 244.464 165.668 244.247 165.851C243.912 164.832 243.782 163.756 243.866 162.686C243.949 161.617 244.245 160.574 244.735 159.62C246.075 157.142 248.675 155.67 250.99 154.068C253.309 152.467 255.627 150.301 255.824 147.488C255.956 145.589 255.075 143.687 255.427 141.819C255.576 141.031 255.937 140.299 256.472 139.702C257.008 139.105 257.697 138.667 258.464 138.435C259.231 138.203 260.048 138.186 260.824 138.385C261.601 138.585 262.307 138.994 262.867 139.568C261.554 141.429 260.248 143.355 259.716 145.569C259.175 147.823 259.618 150.467 261.395 151.96C262.004 152.474 262.752 152.84 263.223 153.483C263.849 154.336 263.852 155.473 263.954 156.523C264.157 158.564 264.824 160.527 265.183 162.548C265.545 164.565 265.565 166.755 264.563 168.545Z" fill="#2F2E41"/>
<path d="M240.695 252.485L243.784 254.871L254.461 244.092L249.901 240.569L240.695 252.485Z" fill="#A0616A"/>
<path d="M240.826 250.152L245.934 253.634L244.317 255.726L246.483 262.52C246.59 262.856 246.586 263.217 246.474 263.55C246.361 263.884 246.145 264.173 245.856 264.375C245.568 264.577 245.222 264.681 244.87 264.673C244.518 264.665 244.178 264.544 243.899 264.329L238.085 259.836L238.682 256.992L236.692 258.76L234.5 257.066L240.826 250.152Z" fill="#2F2E41"/>
<path d="M256.367 145.93C256.366 147.137 256.662 148.326 257.228 149.392C257.794 150.458 258.614 151.368 259.614 152.044C260.614 152.719 261.765 153.139 262.965 153.266C264.166 153.393 265.379 153.223 266.498 152.771C267.618 152.32 268.609 151.601 269.386 150.677C270.162 149.753 270.7 148.652 270.952 147.472C271.204 146.291 271.162 145.067 270.83 143.907C270.499 142.746 269.887 141.685 269.05 140.816L269.014 140.78C268.955 140.718 268.896 140.656 268.834 140.597C268.834 140.597 268.833 140.597 268.833 140.597C268.833 140.597 268.832 140.597 268.832 140.597C268.832 140.596 268.832 140.596 268.831 140.596C268.831 140.595 268.831 140.595 268.831 140.594C268.755 140.524 268.678 140.453 268.598 140.385C267.3 139.247 265.476 138.011 263.615 138.011C259.542 138.011 256.367 141.857 256.367 145.93Z" fill="#2F2E41"/>
<path d="M298.396 142.143C298.432 142.537 298.38 142.933 298.246 143.304C298.112 143.675 297.897 144.013 297.619 144.292C297.34 144.572 297.003 144.787 296.632 144.922C296.261 145.057 295.865 145.11 295.472 145.076L277.212 161.562L274.07 156.599L293.006 141.954C293.108 141.297 293.447 140.7 293.959 140.276C294.471 139.852 295.121 139.631 295.785 139.655C296.45 139.678 297.083 139.944 297.564 140.403C298.045 140.862 298.341 141.481 298.396 142.143V142.143Z" fill="#A0616A"/>
<path d="M269.408 166.538C269.408 166.538 270.088 167.793 272.408 165.855C274.266 164.304 283.167 157.57 285.085 154.811C285.523 154.985 286.006 155.007 286.458 154.876C286.91 154.745 287.306 154.467 287.583 154.086L282.329 149.484C280.757 149.665 280.791 150.721 280.954 151.321L276.991 153.116L266.757 159.657L268.901 165.64L269.408 166.538Z" fill="#0B63C5"/>
<path d="M259.494 178.098L259.111 179.921L258.786 186.643L273.093 187.43L272.649 177.09L271.262 174.811L259.494 178.098Z" fill="#A0616A"/>
<path d="M265.558 153.819C268.973 153.819 271.741 151.051 271.741 147.636C271.741 144.221 268.973 141.453 265.558 141.453C262.143 141.453 259.375 144.221 259.375 147.636C259.375 151.051 262.143 153.819 265.558 153.819Z" fill="#A0616A"/>
<path d="M254.579 170.443L254.541 165.303C254.541 163.453 255.166 161.658 256.317 160.21C257.467 158.763 259.074 157.747 260.876 157.33L260.899 157.325L262.122 155.677L267.089 156.174L268 158.035L271.599 160.178L272.985 164.633C273.586 165.034 274.099 165.554 274.49 166.161C274.882 166.768 275.145 167.449 275.262 168.162C275.732 171.167 273.628 174.174 273.378 174.519L272.733 178.151L258.703 180.626L258.589 180.641L254.579 170.443Z" fill="#0B63C5"/>
<path d="M273.124 146.534C272.403 146.991 271.654 147.403 270.883 147.769C270.1 148.145 269.281 148.441 268.439 148.653C268.198 148.124 267.903 147.621 267.559 147.153C267.648 147.708 267.65 148.273 267.566 148.829C266.17 149.054 264.74 148.937 263.399 148.487L262.235 146.534L262.147 148.714C261.182 148.89 260.221 149.055 259.256 149.228C259.199 149.235 259.141 149.248 259.087 149.259C258.488 146.557 259.337 143.582 261.226 141.781C262.164 140.897 263.334 140.297 264.599 140.051C265.865 139.805 267.174 139.924 268.375 140.394C268.527 140.455 268.683 140.522 268.832 140.593C268.832 140.594 268.832 140.594 268.832 140.595C268.832 140.595 268.832 140.595 268.833 140.596C268.833 140.596 268.833 140.596 268.834 140.596C268.834 140.597 268.835 140.597 268.835 140.597C268.923 140.641 268.998 140.746 269.096 140.735C273.32 140.265 273.456 143.541 273.124 146.534Z" fill="#2F2E41"/>
<path d="M262.837 244.512L265.931 246.892L276.586 236.091L272.02 232.578L262.837 244.512Z" fill="#A0616A"/>
<path d="M263.245 242.395L268.36 245.866L266.748 247.962L268.927 254.751C269.034 255.087 269.032 255.448 268.92 255.781C268.808 256.115 268.592 256.405 268.304 256.607C268.016 256.81 267.671 256.915 267.319 256.907C266.966 256.9 266.626 256.78 266.347 256.565L260.524 252.085L261.115 249.239L259.129 251.011L256.933 249.321L263.245 242.395Z" fill="#2F2E41"/>
<path d="M252.797 231.329L252.797 231.288L254.263 228.762L252.766 225.472L252.721 217.021L252.964 215.752C253.29 214.046 253.195 212.286 252.687 210.625L252.66 205.481C252.607 204.192 254.603 203.059 254.138 201.984C249.738 191.83 258.631 184.083 258.691 184.021L258.873 183.832L259.859 184.579L260.798 184.58L273.463 186.888L273.555 187.059C274.053 187.993 275.014 191.214 275.071 192.671C275.703 193.402 282.893 201.722 283.532 202.3C287.851 206.208 290.324 212.677 291.414 216.185C291.684 217.052 291.739 217.972 291.573 218.864C291.406 219.757 291.024 220.596 290.46 221.307L274.108 239.218L269.708 235.156L278.556 219.033L277.918 217.398C276.773 217.186 275.737 216.585 274.987 215.695L273.195 213.568C272.699 212.981 272.384 212.263 272.287 211.5L271.201 211.369L267.309 207.283L264.609 231.735L263.875 233.666L251.091 248.695L245.676 245.31L252.797 231.329Z" fill="#2F2E41"/>
<path d="M250.845 126.336C250.599 126.645 250.425 127.004 250.333 127.388C250.241 127.773 250.235 128.172 250.314 128.559C250.393 128.946 250.557 129.31 250.792 129.627C251.028 129.944 251.33 130.206 251.677 130.393L247.613 142.427L250.932 155.18L256.284 152.761L252.981 143.141L255.452 129.14C255.729 128.535 255.773 127.85 255.578 127.214C255.383 126.579 254.962 126.037 254.394 125.691C253.826 125.346 253.151 125.221 252.497 125.339C251.843 125.458 251.255 125.813 250.845 126.336Z" fill="#A0616A"/>
<path d="M255.744 165.688C255.744 165.688 254.487 166.363 253.613 163.469C252.913 161.152 248.149 148.573 248.064 145.214C247.602 145.118 247.186 144.872 246.88 144.514C246.575 144.156 246.397 143.706 246.375 143.235L253.293 142.278C254.507 143.293 253.899 144.157 253.432 144.568L255.789 148.559L260.713 159.334L256.661 165.216L255.744 165.688Z" fill="#0B63C5"/>
<path d="M259.254 149.227C259.965 147.085 261.238 145.173 262.942 143.693C264.646 142.212 266.717 141.217 268.937 140.813C268.946 140.81 268.976 140.798 269.014 140.78C269.038 140.765 269.067 140.751 269.097 140.736C269.008 140.686 268.923 140.642 268.834 140.597C268.834 140.597 268.833 140.597 268.833 140.597C268.833 140.597 268.832 140.597 268.832 140.596C268.832 140.596 268.831 140.596 268.831 140.595C268.831 140.595 268.831 140.595 268.831 140.594C268.754 140.524 268.678 140.453 268.598 140.385L268.374 140.394C268.374 140.394 260.496 139.146 259.254 149.227Z" fill="#FD6584"/>
<path d="M360.91 218.13C361.77 216.837 361.261 214.987 359.774 213.998C358.286 213.008 356.383 213.253 355.523 214.546C354.664 215.838 355.173 217.688 356.66 218.678C358.148 219.667 360.051 219.422 360.91 218.13Z" fill="#F2F2F2"/>
<path d="M343.457 169.894C344.316 168.602 343.808 166.752 342.32 165.762C340.832 164.772 338.929 165.018 338.07 166.31C337.21 167.602 337.719 169.452 339.206 170.442C340.694 171.432 342.597 171.186 343.457 169.894Z" fill="#F2F2F2"/>
<path d="M416.446 244.152C417.305 242.859 416.796 241.009 415.309 240.02C413.821 239.03 411.918 239.275 411.058 240.568C410.199 241.86 410.708 243.71 412.195 244.7C413.683 245.689 415.586 245.444 416.446 244.152Z" fill="#F2F2F2"/>
<path d="M268.883 88.9725C269.742 87.6801 269.234 85.8302 267.746 84.8405C266.258 83.8508 264.355 84.0961 263.496 85.3885C262.636 86.6808 263.145 88.5308 264.632 89.5205C266.12 90.5102 268.023 90.2649 268.883 88.9725Z" fill="#F2F2F2"/>
<path d="M337.745 73.7401C338.605 72.4477 338.096 70.5978 336.608 69.6081C335.121 68.6184 333.218 68.8637 332.358 70.1561C331.498 71.4484 332.007 73.2984 333.495 74.2881C334.982 75.2778 336.885 75.0325 337.745 73.7401Z" fill="#F2F2F2"/>
<path d="M305.154 201.537C306.014 200.245 305.505 198.395 304.017 197.405C302.53 196.416 300.627 196.661 299.767 197.953C298.907 199.246 299.416 201.096 300.904 202.085C302.391 203.075 304.294 202.83 305.154 201.537Z" fill="#E6E6E6"/>
<path d="M447.202 268.802H240.838C240.738 268.802 240.642 268.762 240.572 268.691C240.501 268.62 240.461 268.524 240.461 268.424C240.461 268.324 240.501 268.228 240.572 268.157C240.642 268.086 240.738 268.046 240.838 268.046H447.202C447.303 268.046 447.399 268.086 447.47 268.157C447.54 268.228 447.58 268.324 447.58 268.424C447.58 268.524 447.54 268.62 447.47 268.691C447.399 268.762 447.303 268.802 447.202 268.802Z" fill="#CCCCCC"/>
<path d="M279.249 143.309C277.513 143.304 275.84 142.66 274.549 141.499C273.259 140.338 272.441 138.742 272.253 137.016L268.224 99.5996C268.026 97.7418 268.573 95.8814 269.745 94.4265C270.917 92.9716 272.619 92.0411 274.476 91.839L394.099 78.9588C395.957 78.7608 397.817 79.3078 399.272 80.4798C400.727 81.6518 401.658 83.3532 401.86 85.2105L405.888 122.627C406.086 124.485 405.539 126.345 404.367 127.8C403.195 129.255 401.494 130.186 399.636 130.388L399.619 130.23L399.636 130.388L280.014 143.268C279.76 143.295 279.504 143.309 279.249 143.309Z" fill="#E6E6E6"/>
<path d="M392.781 80.6957C392.556 80.6958 392.331 80.7079 392.108 80.732L276.798 93.1477C275.992 93.2346 275.211 93.4793 274.499 93.8681C273.787 94.2568 273.159 94.782 272.65 95.4135C272.142 96.045 271.762 96.7705 271.534 97.5487C271.306 98.3268 271.233 99.1423 271.32 99.9485L273.357 118.867C273.686 121.925 274.614 124.889 276.089 127.588C277.563 130.288 279.555 132.67 281.951 134.6C284.346 136.53 287.098 137.969 290.05 138.835C293.001 139.701 296.095 139.977 299.153 139.648L380.235 130.918C383.284 130.589 386.238 129.664 388.93 128.194C391.621 126.724 393.997 124.738 395.92 122.35C397.844 119.961 399.279 117.218 400.142 114.275C401.006 111.333 401.281 108.249 400.953 105.2L398.909 86.2106C398.746 84.698 398.03 83.2988 396.899 82.2812C395.769 81.2635 394.302 80.6989 392.781 80.6957V80.6957Z" fill="white"/>
<path d="M368.497 100.384L304.049 107.323C303.865 107.344 303.678 107.327 303.5 107.275C303.322 107.223 303.157 107.137 303.012 107.02C302.868 106.904 302.748 106.761 302.659 106.598C302.57 106.435 302.514 106.257 302.494 106.072C302.474 105.888 302.491 105.702 302.543 105.524C302.595 105.346 302.682 105.18 302.798 105.036C302.915 104.892 303.059 104.772 303.221 104.683C303.384 104.594 303.563 104.539 303.747 104.519L368.195 97.5796C368.379 97.5595 368.566 97.5759 368.744 97.628C368.922 97.68 369.088 97.7666 369.232 97.8827C369.376 97.9989 369.497 98.1425 369.585 98.3051C369.674 98.4678 369.73 98.6464 369.75 98.8307C369.77 99.015 369.753 99.2014 369.701 99.3792C369.649 99.5571 369.562 99.7229 369.446 99.8672C369.329 100.011 369.186 100.131 369.023 100.22C368.86 100.309 368.681 100.364 368.497 100.384Z" fill="#0B63C5"/>
<path d="M369.424 108.991L304.976 115.931C304.604 115.971 304.232 115.861 303.941 115.627C303.649 115.392 303.463 115.051 303.423 114.679C303.383 114.307 303.492 113.935 303.727 113.644C303.962 113.352 304.303 113.166 304.674 113.126L369.123 106.187C369.494 106.147 369.867 106.256 370.158 106.491C370.45 106.725 370.636 107.066 370.676 107.438C370.716 107.81 370.606 108.182 370.372 108.474C370.137 108.765 369.796 108.951 369.424 108.991Z" fill="#0B63C5"/>
<path d="M313.414 123.729L305.903 124.538C305.531 124.578 305.159 124.468 304.867 124.234C304.576 123.999 304.39 123.658 304.35 123.286C304.31 122.914 304.419 122.542 304.654 122.251C304.888 121.959 305.229 121.773 305.601 121.733L313.112 120.924C313.296 120.904 313.482 120.921 313.66 120.973C313.838 121.025 314.004 121.111 314.148 121.228C314.293 121.344 314.413 121.487 314.502 121.65C314.591 121.813 314.647 121.991 314.667 122.176C314.687 122.36 314.67 122.546 314.618 122.724C314.565 122.902 314.479 123.068 314.362 123.212C314.246 123.356 314.102 123.476 313.939 123.565C313.777 123.654 313.598 123.709 313.414 123.729Z" fill="#0B63C5"/>
<path d="M276.712 101.178C278.114 101.178 279.251 100.042 279.251 98.6396C279.251 97.2375 278.114 96.1009 276.712 96.1009C275.31 96.1009 274.173 97.2375 274.173 98.6396C274.173 100.042 275.31 101.178 276.712 101.178Z" fill="#020D1B"/>
<path d="M390.32 88.4846C391.722 88.4846 392.859 87.348 392.859 85.9459C392.859 84.5438 391.722 83.4072 390.32 83.4072C388.918 83.4072 387.781 84.5438 387.781 85.9459C387.781 87.348 388.918 88.4846 390.32 88.4846Z" fill="#020D1B"/>
<path d="M355.997 140.604C355.764 140.399 355.579 140.144 355.457 139.859C355.334 139.574 355.276 139.265 355.288 138.955C355.415 135.267 354.808 131.591 353.501 128.141C353.39 127.851 353.346 127.54 353.37 127.23C353.395 126.921 353.488 126.62 353.643 126.351C353.791 126.093 353.995 125.87 354.239 125.698C354.482 125.527 354.761 125.411 355.054 125.358C358.005 123.578 361.03 123.078 364.047 123.873C364.534 123.801 365.03 123.905 365.446 124.166C365.863 124.428 366.173 124.829 366.32 125.298C367.542 129.263 368.221 133.376 368.34 137.523C368.352 138.021 368.183 138.506 367.866 138.889C367.548 139.273 367.103 139.529 366.612 139.61L357.684 141.085C357.385 141.135 357.078 141.118 356.786 141.035C356.495 140.951 356.225 140.804 355.997 140.604Z" fill="#0B63C5"/>
<path d="M356.79 129.86L364.304 128.618C364.366 128.608 364.425 128.586 364.478 128.553C364.532 128.52 364.578 128.477 364.614 128.426C364.651 128.375 364.677 128.318 364.691 128.257C364.705 128.196 364.707 128.133 364.697 128.071C364.687 128.009 364.665 127.95 364.632 127.897C364.599 127.844 364.555 127.798 364.504 127.761C364.453 127.725 364.396 127.699 364.335 127.685C364.274 127.671 364.211 127.669 364.149 127.679L356.635 128.92C356.51 128.941 356.399 129.011 356.326 129.113C356.253 129.216 356.223 129.343 356.244 129.468C356.264 129.592 356.333 129.703 356.436 129.777C356.538 129.85 356.665 129.88 356.79 129.86Z" fill="white"/>
<path d="M357.411 133.617L364.926 132.376C365.05 132.355 365.161 132.286 365.235 132.183C365.308 132.081 365.338 131.953 365.318 131.828C365.297 131.704 365.228 131.593 365.125 131.519C365.023 131.445 364.895 131.416 364.77 131.436L357.256 132.678C357.194 132.688 357.135 132.71 357.082 132.743C357.029 132.776 356.982 132.819 356.946 132.87C356.909 132.921 356.883 132.978 356.869 133.039C356.855 133.1 356.853 133.163 356.863 133.225C356.873 133.287 356.895 133.346 356.928 133.399C356.962 133.452 357.005 133.498 357.056 133.535C357.107 133.571 357.164 133.597 357.225 133.611C357.286 133.625 357.349 133.627 357.411 133.617Z" fill="white"/>
<path d="M358.032 137.374L365.546 136.133C365.671 136.112 365.782 136.043 365.856 135.94C365.929 135.838 365.959 135.71 365.938 135.585C365.918 135.461 365.848 135.35 365.746 135.276C365.643 135.203 365.516 135.173 365.391 135.193L357.877 136.435C357.815 136.445 357.756 136.467 357.703 136.5C357.65 136.533 357.604 136.576 357.567 136.627C357.531 136.678 357.505 136.736 357.491 136.796C357.477 136.857 357.474 136.92 357.485 136.982C357.495 137.044 357.517 137.103 357.55 137.156C357.583 137.209 357.626 137.255 357.677 137.291C357.728 137.328 357.785 137.354 357.846 137.368C357.907 137.382 357.97 137.384 358.032 137.374Z" fill="white"/>
</g>
<path d="M-28.0423 232.634L166.847 -35" stroke="white" stroke-width="24"/>
<path d="M-28.0423 232.634L166.847 -35" stroke="url(#paint0_linear_1_147)" stroke-width="24"/>
<path d="M188 58L186.565 47.7886C197.916 49.1685 202.741 49.2542 207.717 44.8159L209.152 55.0273L188 58Z" fill="white"/>
<path d="M188 58L186.565 47.7886C197.916 49.1685 202.741 49.2542 207.717 44.8159L209.152 55.0273L188 58Z" fill="url(#paint1_linear_1_147)"/>
<path d="M378.667 16L382.605 22.5547C374.457 24.9017 371.138 26.2415 369.028 30.7129L365.089 24.1582L378.667 16Z" fill="white"/>
<path d="M378.667 16L382.605 22.5547C374.457 24.9017 371.138 26.2415 369.028 30.7129L365.089 24.1582L378.667 16Z" fill="url(#paint2_linear_1_147)"/>
<path d="M553.333 85L547.442 96.5622C536.737 86.9467 531.825 83.3751 523.492 84.3589L529.383 72.7967L553.333 85Z" fill="white"/>
<path d="M553.333 85L547.442 96.5622C536.737 86.9467 531.825 83.3751 523.492 84.3589L529.383 72.7967L553.333 85Z" fill="url(#paint3_linear_1_147)"/>
<path d="M149.212 222.333L146.999 234.885C134.183 228.927 128.544 226.984 121 230.3L123.213 217.749L149.212 222.333Z" fill="white"/>
<path d="M149.212 222.333L146.999 234.885C134.183 228.927 128.544 226.984 121 230.3L123.213 217.749L149.212 222.333Z" fill="url(#paint4_linear_1_147)"/>
<path d="M280.667 175.333L291.506 173.422C290.457 185.582 290.546 190.733 295.466 195.876L284.626 197.787L280.667 175.333Z" fill="white"/>
<path d="M280.667 175.333L291.506 173.422C290.457 185.582 290.546 190.733 295.466 195.876L284.626 197.787L280.667 175.333Z" fill="url(#paint5_linear_1_147)"/>
<path d="M627.333 257.333L626.941 246.102C639.087 248.89 644.308 249.533 650.207 245.289L650.599 256.521L627.333 257.333Z" fill="white"/>
<path d="M627.333 257.333L626.941 246.102C639.087 248.89 644.308 249.533 650.207 245.289L650.599 256.521L627.333 257.333Z" fill="url(#paint6_linear_1_147)"/>
<path d="M-3 221L158.5 -3" stroke="url(#paint7_linear_1_147)" stroke-width="4.62023"/>
<path d="M-35 191L126.5 -33" stroke="url(#paint8_linear_1_147)" stroke-width="4.62023"/>
<defs>
<linearGradient id="paint0_linear_1_147" x1="64.3358" y1="53.6865" x2="173.756" y2="192.421" gradientUnits="userSpaceOnUse">
<stop stop-color="#0B63C5"/>
<stop offset="1" stop-color="#073D79"/>
</linearGradient>
<linearGradient id="paint1_linear_1_147" x1="193.618" y1="51.8586" x2="200.324" y2="41.5346" gradientUnits="userSpaceOnUse">
<stop stop-color="#0B63C5"/>
<stop offset="1" stop-color="#073D79"/>
</linearGradient>
<linearGradient id="paint2_linear_1_147" x1="376.611" y1="21.8202" x2="375.025" y2="30.8105" gradientUnits="userSpaceOnUse">
<stop stop-color="#0B63C5"/>
<stop offset="1" stop-color="#073D79"/>
</linearGradient>
<linearGradient id="paint3_linear_1_147" x1="543.109" y1="87.2755" x2="528.745" y2="93.0781" gradientUnits="userSpaceOnUse">
<stop stop-color="#0B63C5"/>
<stop offset="1" stop-color="#073D79"/>
</linearGradient>
<linearGradient id="paint4_linear_1_147" x1="140.262" y1="227.407" x2="128.437" y2="236.981" gradientUnits="userSpaceOnUse">
<stop stop-color="#0B63C5"/>
<stop offset="1" stop-color="#073D79"/>
</linearGradient>
<linearGradient id="paint5_linear_1_147" x1="287.427" y1="181.098" x2="298.69" y2="187.866" gradientUnits="userSpaceOnUse">
<stop stop-color="#0B63C5"/>
<stop offset="1" stop-color="#073D79"/>
</linearGradient>
<linearGradient id="paint6_linear_1_147" x1="634.123" y1="251.317" x2="642.567" y2="240.89" gradientUnits="userSpaceOnUse">
<stop stop-color="#0B63C5"/>
<stop offset="1" stop-color="#073D79"/>
</linearGradient>
<linearGradient id="paint7_linear_1_147" x1="74.0532" y1="-2354" x2="158.069" y2="-2351.41" gradientUnits="userSpaceOnUse">
<stop offset="0.0100456" stop-color="#A36C27"/>
<stop offset="0.873925" stop-color="#FAD96A"/>
</linearGradient>
<linearGradient id="paint8_linear_1_147" x1="42.0532" y1="-2384" x2="126.069" y2="-2381.41" gradientUnits="userSpaceOnUse">
<stop offset="0.0100456" stop-color="#A36C27"/>
<stop offset="0.873925" stop-color="#FAD96A"/>
</linearGradient>
<clipPath id="clip0_1_147">
<rect width="232" height="199.802" fill="white" transform="translate(234.5 69)"/>
</clipPath>
</defs>
</svg>
