<svg width="143" height="147" viewBox="0 0 143 147" fill="none" xmlns="http://www.w3.org/2000/svg">
<path d="M141.936 139.805C142.341 139.43 142.366 138.797 141.991 138.392L135.878 131.787C135.502 131.381 134.87 131.357 134.464 131.732C134.059 132.107 134.035 132.74 134.41 133.145L139.844 139.017L133.972 144.45C133.567 144.826 133.542 145.458 133.918 145.864C134.293 146.269 134.925 146.293 135.331 145.918L141.936 139.805ZM1.68559 6.82206C9.41716 2.98478 15.6304 2.15798 20.8182 3.48334C26.0103 4.80981 30.3565 8.33801 34.2579 13.5841C38.1639 18.8363 41.5656 25.7321 44.8859 33.6541C48.2073 41.5788 51.4105 50.437 54.9594 59.6377C62.036 77.9842 70.4425 97.578 83.6466 112.833C96.8883 128.132 114.943 139.054 141.218 140.071L141.295 138.072C115.628 137.079 98.0757 126.448 85.1588 111.524C72.2043 96.5575 63.9001 77.2596 56.8254 58.918C53.2986 49.7746 50.0661 40.8396 46.7305 32.8811C43.3938 24.9199 39.9173 17.8425 35.8628 12.3906C31.8037 6.9326 27.1072 3.02583 21.3132 1.54558C15.5149 0.0642276 8.79871 1.05895 0.796448 5.03057L1.68559 6.82206Z" fill="#8F8F8F"/>
</svg>
