<svg width="65" height="22" viewBox="0 0 65 22" fill="none" xmlns="http://www.w3.org/2000/svg">
<path fill-rule="evenodd" clip-rule="evenodd" d="M19.1182 13.6202C15.6093 15.467 11.652 15.9155 7.66823 15.8627C7.32526 15.8627 7.29888 16.5487 7.48355 16.8389C11.309 19.055 17.6408 16.7333 21.3343 14.9921C21.9675 14.7019 22.4424 15.4934 22.1258 16.1793C20.3582 20.1894 11.7575 22.5111 7.61546 21.9043C4.37043 21.2183 2.04878 19.7145 0.808812 17.3929C-0.0354243 15.8099 -0.0618067 14.4644 0.0437228 12.6968C0.12287 11.3777 0.413076 10.1905 0.993488 9.00329C1.25731 8.44926 1.62667 7.68417 1.96964 7.18291C12.2588 -8.38269 35.6072 4.91402 19.1182 13.6466V13.6202ZM8.85544 7.97438C9.38308 7.28844 10.0426 6.73441 10.6494 6.28591C11.2562 5.86379 11.7839 5.57358 12.3907 5.30976C12.9975 5.07232 13.6834 4.86126 14.343 4.86126C15.0025 4.86126 15.6357 5.0987 16.0842 5.38891C16.5327 5.67911 16.7965 5.9957 16.9812 6.33867C17.1395 6.68164 17.2186 6.99823 17.2186 7.3412C17.2186 7.68417 17.1395 8.02714 16.9812 8.34373C16.7965 8.66032 16.5327 8.92414 16.0051 9.24073C15.4774 9.55732 14.6596 9.92668 13.8945 10.2169C13.1294 10.5071 12.3643 10.7445 11.5992 10.9292C10.8077 11.1139 10.0163 11.2458 9.40947 11.3249C8.80267 11.3777 8.43332 11.3777 8.14311 11.1666C7.85291 10.982 7.69461 10.5862 7.80014 10.0058C7.90567 9.42541 8.32779 8.66032 8.85544 7.97438Z" fill="#2C65AE"/>
<path fill-rule="evenodd" clip-rule="evenodd" d="M37.5344 20.5059C40.9905 20.5059 43.3913 19.2132 44.7896 17.8149L44.1037 17.129C43.7343 16.7596 43.3913 16.4167 43.0747 16.1265C42.8109 15.8626 42.5735 15.6252 42.3624 15.4141C42.1514 15.2031 41.9403 15.0184 41.7556 14.8337C41.439 14.5171 41.1488 14.2533 40.9114 14.0159L40.8059 13.9103C40.2518 14.4116 39.5659 14.7809 38.748 14.9392C38.2995 15.0712 37.851 15.1239 37.3761 15.1239C34.606 15.1239 32.3899 12.9606 32.3899 10.2696C32.3899 7.57856 34.6324 5.41521 37.3761 5.41521C37.8246 5.41521 38.2731 5.46797 38.6689 5.5735C39.5395 5.70541 40.2782 6.07477 40.8586 6.60241L40.9378 6.52327C41.1752 6.28583 41.4654 6.022 41.782 5.70541C41.9667 5.52074 42.1514 5.33606 42.3888 5.125C42.5999 4.91394 42.8373 4.6765 43.1011 4.41268C43.4177 4.12247 43.7607 3.7795 44.13 3.41015L44.8424 2.72421C43.4441 1.29956 41.0433 0.0332031 37.5872 0.0332031C31.4665 0.0332031 26.9023 4.17524 26.9023 10.2696C26.9023 16.4167 31.4665 20.5587 37.5872 20.5587L37.5344 20.5059Z" fill="#2966AF"/>
<path fill-rule="evenodd" clip-rule="evenodd" d="M57.3469 20.5059C60.803 20.5059 63.2038 19.2132 64.6021 17.8149L63.9162 17.129C63.5468 16.7596 63.2038 16.4167 62.8872 16.1265C62.6234 15.8626 62.386 15.6252 62.1749 15.4141C61.9639 15.2031 61.7528 15.0184 61.5681 14.8337C61.2515 14.5171 60.9613 14.2533 60.7239 14.0159L60.6184 13.9103C60.0643 14.4116 59.3784 14.7809 58.5605 14.9392C58.112 15.0712 57.6635 15.1239 57.1886 15.1239C54.4185 15.1239 52.2024 12.9606 52.2024 10.2696C52.2024 7.57856 54.4449 5.41521 57.1886 5.41521C57.6371 5.41521 58.0856 5.46797 58.4814 5.5735C59.352 5.70541 60.0907 6.07477 60.6711 6.60241L60.7503 6.52327C60.9877 6.28583 61.2779 6.022 61.5945 5.70541C61.7792 5.52074 61.9639 5.33606 62.2013 5.125C62.4124 4.91394 62.6498 4.6765 62.9136 4.41268C63.2302 4.12247 63.5732 3.7795 63.9425 3.41015L64.6549 2.72421C63.2566 1.29956 60.8558 0.0332031 57.3997 0.0332031C51.279 0.0332031 46.7148 4.17524 46.7148 10.2696C46.7148 16.4167 51.279 20.5587 57.3997 20.5587L57.3469 20.5059Z" fill="#2C65AE"/>
</svg>
