<svg width="33" height="33" viewBox="0 0 33 33" fill="none" xmlns="http://www.w3.org/2000/svg">
<g clip-path="url(#clip0_5819_12701)">
<path d="M31.7686 18.0319H27.4004V13.8338H31.7686C32.425 13.8338 32.957 13.3022 32.957 12.6458C32.957 11.9892 32.425 11.4573 31.7686 11.4573H27.4004V5.63217C27.4004 4.78184 27.2324 4.15772 26.9011 3.77754C26.5863 3.41586 26.1724 3.24756 25.5992 3.24756C25.0523 3.24756 24.654 3.4147 24.3453 3.77412C24.0179 4.15469 23.8517 4.77997 23.8517 5.63256V11.4581H15.6349L12.1412 6.1713C11.8422 5.69949 11.561 5.25753 11.288 4.8333C11.0422 4.45125 10.8025 4.14018 10.576 3.90792C10.3755 3.70229 10.1471 3.54314 9.87987 3.42082C9.62774 3.30572 9.3072 3.24795 8.92798 3.24795C8.4443 3.24795 8.00524 3.38046 7.58482 3.6527C7.16878 3.92198 6.88119 4.2549 6.70554 4.67055C6.55137 5.06557 6.4698 5.67086 6.4698 6.45219V11.4577H2.14498C1.48875 11.4577 0.957031 11.9896 0.957031 12.6461C0.957031 13.3026 1.48875 13.8341 2.14505 13.8341H6.46986V18.0327H2.14505C1.48875 18.0327 0.957031 18.5644 0.957031 19.2211C0.957031 19.8774 1.48875 20.4087 2.14505 20.4087H6.46986V27.0596C6.46986 27.8848 6.64325 28.5026 6.98669 28.8952C7.31329 29.2695 7.72739 29.4433 8.28974 29.4433C8.83229 29.4433 9.24317 29.2687 9.58389 28.8937C9.93281 28.5095 10.1093 27.8921 10.1093 27.0597V20.4087H17.5446L21.5682 26.5786C21.848 26.9864 22.1369 27.3981 22.425 27.8017C22.6849 28.1642 22.9685 28.4836 23.2677 28.7503C23.5372 28.9916 23.826 29.1684 24.1263 29.2763C24.4355 29.3876 24.7968 29.444 25.1977 29.444C26.2858 29.444 27.4003 29.1109 27.4003 26.6404V20.4087H31.7685C32.4249 20.4087 32.9569 19.8766 32.9569 19.2203C32.957 18.564 32.425 18.0319 31.7686 18.0319ZM23.8516 13.8337V18.0319H19.9801L17.206 13.8337H23.8516ZM10.1094 9.00987L11.7059 11.4573H10.1094V9.00987ZM10.1094 18.0319V13.8338H13.2562L15.9945 18.0319H10.1094ZM23.8516 23.8916L21.5507 20.4087H23.8516V23.8916Z" fill="#0B63C5"/>
</g>
<defs>
<clipPath id="clip0_5819_12701">
<rect width="32" height="32" fill="white" transform="translate(0.957031 0.345703)"/>
</clipPath>
</defs>
</svg>
