<svg width="12" height="58" viewBox="0 0 12 58" fill="none" xmlns="http://www.w3.org/2000/svg">
<path d="M6 54.8868L8.88675 52L6 49.1132L3.11325 52L6 54.8868ZM5.5 2.18557e-08L5.5 3.25L6.5 3.25L6.5 -2.18557e-08L5.5 2.18557e-08ZM5.5 9.75L5.5 16.25L6.5 16.25L6.5 9.75L5.5 9.75ZM5.5 22.75L5.5 29.25L6.5 29.25L6.5 22.75L5.5 22.75ZM5.5 35.75L5.5 42.25L6.5 42.25L6.5 35.75L5.5 35.75ZM5.5 48.75L5.5 52L6.5 52L6.5 48.75L5.5 48.75ZM6 57.7735L11.7735 52L6 46.2265L0.2265 52L6 57.7735ZM5 4.37114e-08L5 3.25L7 3.25L7 -4.37114e-08L5 4.37114e-08ZM5 9.75L5 16.25L7 16.25L7 9.75L5 9.75ZM5 22.75L5 29.25L7 29.25L7 22.75L5 22.75ZM5 35.75L5 42.25L7 42.25L7 35.75L5 35.75ZM5 48.75L5 52L7 52L7 48.75L5 48.75Z" fill="#2362A9"/>
</svg>
