<svg width="12" height="183" viewBox="0 0 12 183" fill="none" xmlns="http://www.w3.org/2000/svg">
<path d="M5.99999 179.887L8.88674 177L5.99999 174.113L3.11324 177L5.99999 179.887ZM5.5 -2.18557e-08L5.5 2.95L6.5 2.95L6.5 2.18557e-08L5.5 -2.18557e-08ZM5.5 8.85L5.5 14.75L6.5 14.75L6.5 8.85L5.5 8.85ZM5.5 20.65L5.5 26.55L6.5 26.55L6.5 20.65L5.5 20.65ZM5.5 32.45L5.5 38.35L6.5 38.35L6.5 32.45L5.5 32.45ZM5.5 44.25L5.5 50.15L6.5 50.15L6.5 44.25L5.5 44.25ZM5.5 56.05L5.5 61.95L6.5 61.95L6.5 56.05L5.5 56.05ZM5.5 67.85L5.5 73.75L6.5 73.75L6.5 67.85L5.5 67.85ZM5.5 79.65L5.5 85.55L6.5 85.55L6.5 79.65L5.5 79.65ZM5.5 91.45L5.5 97.35L6.5 97.35L6.5 91.45L5.5 91.45ZM5.5 103.25L5.5 109.15L6.5 109.15L6.5 103.25L5.5 103.25ZM5.49999 115.05L5.49999 120.95L6.49999 120.95L6.49999 115.05L5.49999 115.05ZM5.49999 126.85L5.49999 132.75L6.49999 132.75L6.49999 126.85L5.49999 126.85ZM5.49999 138.65L5.49999 144.55L6.49999 144.55L6.49999 138.65L5.49999 138.65ZM5.49999 150.45L5.49999 156.35L6.49999 156.35L6.49999 150.45L5.49999 150.45ZM5.49999 162.25L5.49999 168.15L6.49999 168.15L6.49999 162.25L5.49999 162.25ZM5.49999 174.05L5.49999 177L6.49999 177L6.49999 174.05L5.49999 174.05ZM5.99999 182.773L11.7735 177L5.99999 171.227L0.226489 177L5.99999 182.773ZM5 -4.37114e-08L5 2.95L7 2.95L7 4.37114e-08L5 -4.37114e-08ZM5 8.85L5 14.75L7 14.75L7 8.85L5 8.85ZM5 20.65L5 26.55L7 26.55L7 20.65L5 20.65ZM5 32.45L5 38.35L7 38.35L7 32.45L5 32.45ZM5 44.25L5 50.15L7 50.15L7 44.25L5 44.25ZM5 56.05L5 61.95L7 61.95L7 56.05L5 56.05ZM5 67.85L5 73.75L7 73.75L7 67.85L5 67.85ZM5 79.65L5 85.55L7 85.55L7 79.65L5 79.65ZM5 91.45L5 97.35L7 97.35L7 91.45L5 91.45ZM5 103.25L5 109.15L7 109.15L7 103.25L5 103.25ZM4.99999 115.05L4.99999 120.95L6.99999 120.95L6.99999 115.05L4.99999 115.05ZM4.99999 126.85L4.99999 132.75L6.99999 132.75L6.99999 126.85L4.99999 126.85ZM4.99999 138.65L4.99999 144.55L6.99999 144.55L6.99999 138.65L4.99999 138.65ZM4.99999 150.45L4.99999 156.35L6.99999 156.35L6.99999 150.45L4.99999 150.45ZM4.99999 162.25L4.99999 168.15L6.99999 168.15L6.99999 162.25L4.99999 162.25ZM4.99999 174.05L4.99999 177L6.99999 177L6.99999 174.05L4.99999 174.05Z" fill="#2F972F"/>
</svg>
