<svg width="59" height="59" viewBox="0 0 59 59" fill="none" xmlns="http://www.w3.org/2000/svg">
<circle cx="29.5" cy="29.5" r="29.5" fill="#F1F7FE"/>
<path d="M42.743 27.5456L40.3356 25.6396V16.0043C40.3356 15.4505 39.885 15 39.3312 15H20.6703C20.1165 15 19.666 15.4505 19.666 16.0043V25.6396L17.2586 27.5456C17.1421 27.6377 17.0742 27.7781 17.0742 27.9266V43.4773C17.0742 44.3169 17.7573 45 18.5969 45H41.4047C42.2443 45 42.9274 44.3169 42.9274 43.4773V27.9266C42.9274 27.7781 42.8594 27.6377 42.743 27.5456ZM41.9554 43.4773C41.9554 43.4878 41.9545 43.498 41.9539 43.5083L32.748 36.2203L41.9554 28.9311V43.4773ZM18.0461 43.4773V28.9311L27.2536 36.2203L18.0477 43.5083C18.0471 43.498 18.0461 43.4878 18.0461 43.4773ZM31.9514 35.6114C30.8029 36.5206 29.1987 36.5206 28.0502 35.6114L26.1594 34.1145H33.8421L31.9514 35.6114ZM28.0505 36.829C28.0653 36.8173 28.0805 36.8061 28.0954 36.7946C28.6926 37.1085 29.3464 37.2662 30.0007 37.2662C30.6548 37.2662 31.3088 37.1084 31.9059 36.7946C31.921 36.8062 31.9363 36.8173 31.9513 36.8292L41.0446 44.0281H18.957L28.0505 36.829ZM41.6585 27.9266L40.3356 28.9738V26.8792L41.6585 27.9266ZM20.6703 15.9719H39.3312C39.3491 15.9719 39.3636 15.9864 39.3636 16.0043V29.7433L35.0698 33.1425H24.9318L20.6379 29.7433V25.8852C20.6379 25.884 20.6379 25.8828 20.6379 25.8816V16.0043C20.6379 15.9864 20.6524 15.9719 20.6703 15.9719ZM19.666 28.9738L18.3431 27.9266L19.666 26.8792V28.9738Z" fill="#0B63C5"/>
<path d="M23.7809 19.6003H27.4094C27.6778 19.6003 27.8954 19.3828 27.8954 19.1144C27.8954 18.846 27.6778 18.6284 27.4094 18.6284H23.7809C23.5125 18.6284 23.2949 18.846 23.2949 19.1144C23.2949 19.3828 23.5125 19.6003 23.7809 19.6003Z" fill="#0B63C5"/>
<path d="M23.7809 22.1921H29.4828C29.7512 22.1921 29.9688 21.9746 29.9688 21.7062C29.9688 21.4378 29.7512 21.2202 29.4828 21.2202H23.7809C23.5125 21.2202 23.2949 21.4378 23.2949 21.7062C23.2949 21.9746 23.5125 22.1921 23.7809 22.1921Z" fill="#0B63C5"/>
<path d="M26.4043 25.8531C26.4043 26.1215 26.6219 26.3391 26.8903 26.3391H33.1106C33.3789 26.3391 33.5965 26.1215 33.5965 25.8531C33.5965 25.5848 33.3789 25.3672 33.1106 25.3672H26.8903C26.6219 25.3672 26.4043 25.5848 26.4043 25.8531Z" fill="#0B63C5"/>
<path d="M23.7809 28.9309H36.2215C36.4899 28.9309 36.7074 28.7133 36.7074 28.4449C36.7074 28.1766 36.4899 27.959 36.2215 27.959H23.7809C23.5125 27.959 23.2949 28.1766 23.2949 28.4449C23.2949 28.7133 23.5125 28.9309 23.7809 28.9309Z" fill="#0B63C5"/>
<path d="M23.7809 31.5227H36.2215C36.4899 31.5227 36.7074 31.3051 36.7074 31.0367C36.7074 30.7684 36.4899 30.5508 36.2215 30.5508H23.7809C23.5125 30.5508 23.2949 30.7684 23.2949 31.0367C23.2949 31.3051 23.5125 31.5227 23.7809 31.5227Z" fill="#0B63C5"/>
</svg>
