<svg width="59" height="59" viewBox="0 0 59 59" fill="none" xmlns="http://www.w3.org/2000/svg">
<circle cx="29.5" cy="29.5" r="29.5" fill="#BDFFBD"/>
<path d="M32.5 17.8369V23.0001C32.5 23.7002 32.5 24.0502 32.6362 24.3176C32.7561 24.5528 32.9473 24.744 33.1825 24.8638C33.4499 25.0001 33.7999 25.0001 34.5 25.0001H39.6632M35 31.25H25M35 36.25H25M27.5 26.25H25M32.5 17.5H26C23.8998 17.5 22.8497 17.5 22.0475 17.9087C21.3419 18.2683 20.7683 18.8419 20.4087 19.5475C20 20.3497 20 21.3998 20 23.5V36.5C20 38.6002 20 39.6503 20.4087 40.4525C20.7683 41.1581 21.3419 41.7317 22.0475 42.0913C22.8497 42.5 23.8998 42.5 26 42.5H34C36.1002 42.5 37.1503 42.5 37.9525 42.0913C38.6581 41.7317 39.2317 41.1581 39.5913 40.4525C40 39.6503 40 38.6002 40 36.5V25L32.5 17.5Z" stroke="#2F972F" stroke-width="2" stroke-linecap="round" stroke-linejoin="round"/>
</svg>
