<svg width="59" height="59" viewBox="0 0 59 59" fill="none" xmlns="http://www.w3.org/2000/svg">
<circle cx="29.5" cy="29.5" r="29.5" fill="#2C2D2D"/>
<path fill-rule="evenodd" clip-rule="evenodd" d="M44.4631 25.6722C45.3246 29.7252 44.4665 33.7446 42.3685 36.9588C40.2828 40.1705 36.9626 42.6016 32.9096 43.4631C28.8565 44.3246 24.8371 43.4664 21.6229 41.3685C18.4113 39.2828 15.9802 35.9625 15.1187 31.9095C14.2572 27.8565 15.1153 23.8371 17.2133 20.6229C19.2989 17.4112 22.6192 14.9801 26.6722 14.1186C30.7252 13.2571 34.7446 14.1153 37.9589 16.2132C41.1705 18.2989 43.6016 21.6191 44.4631 25.6722ZM40.6058 35.8142C42.4005 33.0507 43.1468 29.5958 42.4058 26.1095C41.6647 22.6231 39.5777 19.7705 36.8142 17.9759C34.0507 16.1813 30.5959 15.4349 27.1095 16.1759C23.6232 16.917 20.7706 19.004 18.9759 21.7675C17.1813 24.531 16.4349 27.9859 17.176 31.4722C17.917 34.9586 20.0041 37.8112 22.7676 39.6058C25.5311 41.4004 28.9859 42.1468 32.4723 41.4057C35.9586 40.6647 38.8112 38.5776 40.6058 35.8142Z" fill="#33CC66"/>
<path fill-rule="evenodd" clip-rule="evenodd" d="M25.718 36.648L27.7014 36.2264C28.4651 36.064 29.227 36.5588 29.3893 37.3226C29.5517 38.0863 29.0569 38.8482 28.2931 39.0105L26.3097 39.4321C25.546 39.5945 24.7841 39.0997 24.6218 38.3359C24.4594 37.5721 24.9542 36.8103 25.718 36.648ZM34.7879 18.5609C33.6676 17.8334 32.1523 18.1554 31.4247 19.2758L23.2761 31.8235C22.5486 32.9438 22.8707 34.4591 23.991 35.1867C25.1113 35.9142 26.6266 35.5921 27.3542 34.4718L35.5028 21.9241C36.2303 20.8037 35.9082 19.2885 34.7879 18.5609ZM32.1184 29.0814L37.7649 32.7482C38.8852 33.4758 39.2073 34.991 38.4797 36.1114C37.7522 37.2317 36.2369 37.5538 35.1166 36.8262L29.4701 33.1594L32.1184 29.0814ZM23.1649 23.0015C24.4708 22.7239 25.7704 23.5679 26.0479 24.8737L26.1684 25.4404L22.4239 31.2064L21.2927 25.8844C21.0151 24.5786 21.8591 23.279 23.1649 23.0015Z" fill="#33CC66"/>
</svg>
