<svg width="59" height="59" viewBox="0 0 59 59" fill="none" xmlns="http://www.w3.org/2000/svg">
<circle cx="29.5" cy="29.5" r="29.5" fill="#FFBDBD"/>
<g clip-path="url(#clip0_5819_12563)">
<path d="M30 15C21.729 15 15 21.729 15 30C15 38.271 21.729 45 30 45C38.271 45 45 38.271 45 30C45 21.729 38.2711 15 30 15ZM30 43.3784C26.3253 43.3784 22.9922 41.8889 20.5719 39.4824C19.6054 38.5213 18.7849 37.4137 18.1461 36.1965C17.6757 35.3003 17.3033 34.3452 17.0448 33.3445H42.9551C41.4662 39.1083 36.2224 43.3784 30 43.3784ZM17.5376 25.135C19.4877 20.1565 24.3386 16.6216 30 16.6216C33.499 16.6216 36.688 17.9725 39.0744 20.1793C40.3117 21.3234 41.3335 22.6973 42.0702 24.2331C42.2116 24.5279 42.3424 24.8288 42.4624 25.135H17.5376ZM36.6385 29.2398C36.6385 30.1353 35.9124 30.8614 35.0169 30.8614C34.1213 30.8614 33.3952 30.1353 33.3952 29.2398C33.3952 28.3442 34.1213 27.6181 35.0169 27.6181C35.9124 27.6181 36.6385 28.3442 36.6385 29.2398ZM26.6046 29.2398C26.6046 30.1353 25.8785 30.8614 24.9829 30.8614C24.0874 30.8614 23.3613 30.1353 23.3613 29.2398C23.3613 28.3442 24.0874 27.6181 24.9829 27.6181C25.8785 27.6181 26.6046 28.3442 26.6046 29.2398Z" fill="#EF2E2E"/>
<path d="M22.0597 22.9649L27.5059 24.355L27.9069 22.7839L22.4607 21.3938L22.0597 22.9649Z" fill="#EF2E2E"/>
<path d="M32.0931 22.7839L32.4941 24.355L37.9403 22.9649L37.5393 21.3938L32.0931 22.7839Z" fill="#EF2E2E"/>
<path d="M35.2864 35.8287C36.5913 35.6474 37.926 35.9393 39.045 36.65L39.9144 35.2812C38.4713 34.3646 36.7488 33.9887 35.0634 34.2225C32.3541 34.599 30.0529 36.5216 29.2012 39.1208L30.7422 39.6257C31.4025 37.6109 33.1863 36.1205 35.2864 35.8287Z" fill="#EF2E2E"/>
</g>
<defs>
<clipPath id="clip0_5819_12563">
<rect width="30" height="30" fill="white" transform="translate(15 15)"/>
</clipPath>
</defs>
</svg>
