<svg width="35" height="35" viewBox="0 0 35 35" fill="none" xmlns="http://www.w3.org/2000/svg">
<g clip-path="url(#clip0_5819_12655)">
<path d="M32.0827 17.4998C32.0827 9.44984 25.5494 2.9165 17.4994 2.9165C9.44935 2.9165 2.91602 9.44984 2.91602 17.4998C2.91602 24.5582 7.93268 30.4353 14.5827 31.7915V21.8748H11.666V17.4998H14.5827V13.854C14.5827 11.0394 16.8723 8.74984 19.6869 8.74984H23.3327V13.1248H20.416C19.6139 13.1248 18.9577 13.7811 18.9577 14.5832V17.4998H23.3327V21.8748H18.9577V32.0103C26.3223 31.2811 32.0827 25.0686 32.0827 17.4998Z" fill="white"/>
<path d="M32.0827 17.4998C32.0827 9.44984 25.5494 2.9165 17.4994 2.9165C9.44935 2.9165 2.91602 9.44984 2.91602 17.4998C2.91602 24.5582 7.93268 30.4353 14.5827 31.7915V21.8748H11.666V17.4998H14.5827V13.854C14.5827 11.0394 16.8723 8.74984 19.6869 8.74984H23.3327V13.1248H20.416C19.6139 13.1248 18.9577 13.7811 18.9577 14.5832V17.4998H23.3327V21.8748H18.9577V32.0103C26.3223 31.2811 32.0827 25.0686 32.0827 17.4998Z" fill="white"/>
</g>
<defs>
<clipPath id="clip0_5819_12655">
<rect width="35" height="35" fill="white"/>
</clipPath>
</defs>
</svg>
