<svg width="35" height="35" viewBox="0 0 35 35" fill="none" xmlns="http://www.w3.org/2000/svg">
<path d="M30.5482 12.1113C30.5335 11.0068 30.3267 9.9133 29.9371 8.87967C29.5993 8.00781 29.0833 7.216 28.4222 6.55484C27.761 5.89368 26.9692 5.3777 26.0973 5.03988C25.077 4.65686 23.9991 4.44975 22.9094 4.42738C21.5065 4.36467 21.0617 4.34717 17.5005 4.34717C13.9392 4.34717 13.4828 4.34717 12.0901 4.42738C11.0009 4.44991 9.92348 4.65702 8.90359 5.03988C8.0316 5.37747 7.23967 5.89336 6.57848 6.55455C5.91728 7.21574 5.40139 8.00767 5.0638 8.87967C4.68001 9.89924 4.47336 10.9769 4.45276 12.0661C4.39005 13.4705 4.37109 13.9153 4.37109 17.4765C4.37109 21.0378 4.37109 21.4928 4.45276 22.887C4.47464 23.9778 4.68026 25.054 5.0638 26.0763C5.40196 26.9481 5.91823 27.7397 6.57965 28.4006C7.24106 29.0615 8.03306 29.5772 8.90505 29.9147C9.92214 30.3131 10.9998 30.535 12.0915 30.5709C13.4959 30.6336 13.9407 30.6526 17.5019 30.6526C21.0632 30.6526 21.5196 30.6526 22.9123 30.5709C24.0019 30.5495 25.08 30.3428 26.1003 29.9599C26.9719 29.6217 27.7635 29.1055 28.4246 28.4444C29.0857 27.7833 29.6018 26.9917 29.9401 26.1201C30.3236 25.0993 30.5292 24.023 30.5511 22.9307C30.6138 21.5278 30.6328 21.083 30.6328 17.5203C30.6298 13.959 30.6298 13.507 30.5482 12.1113ZM17.4917 24.2111C13.7671 24.2111 10.7498 21.1938 10.7498 17.4693C10.7498 13.7447 13.7671 10.7274 17.4917 10.7274C19.2798 10.7274 20.9946 11.4377 22.2589 12.702C23.5233 13.9664 24.2336 15.6812 24.2336 17.4693C24.2336 19.2573 23.5233 20.9721 22.2589 22.2365C20.9946 23.5008 19.2798 24.2111 17.4917 24.2111ZM24.5019 12.0501C24.2954 12.0503 24.0909 12.0097 23.9001 11.9308C23.7093 11.8519 23.5359 11.7361 23.3899 11.5901C23.2439 11.444 23.1281 11.2707 23.0491 11.0798C22.9702 10.889 22.9297 10.6845 22.9298 10.478C22.9298 10.2716 22.9705 10.0673 23.0495 9.87667C23.1284 9.68603 23.2442 9.5128 23.3901 9.36689C23.536 9.22097 23.7092 9.10523 23.8999 9.02626C24.0905 8.94729 24.2948 8.90665 24.5012 8.90665C24.7076 8.90665 24.9119 8.94729 25.1025 9.02626C25.2932 9.10523 25.4664 9.22097 25.6123 9.36689C25.7582 9.5128 25.874 9.68603 25.9529 9.87667C26.0319 10.0673 26.0726 10.2716 26.0726 10.478C26.0726 11.3472 25.3696 12.0501 24.5019 12.0501Z" fill="white"/>
<path d="M30.5482 12.1113C30.5335 11.0068 30.3267 9.9133 29.9371 8.87967C29.5993 8.00781 29.0833 7.216 28.4222 6.55484C27.761 5.89368 26.9692 5.3777 26.0973 5.03988C25.077 4.65686 23.9991 4.44975 22.9094 4.42738C21.5065 4.36467 21.0617 4.34717 17.5005 4.34717C13.9392 4.34717 13.4828 4.34717 12.0901 4.42738C11.0009 4.44991 9.92348 4.65702 8.90359 5.03988C8.0316 5.37747 7.23967 5.89336 6.57848 6.55455C5.91728 7.21574 5.40139 8.00767 5.0638 8.87967C4.68001 9.89924 4.47336 10.9769 4.45276 12.0661C4.39005 13.4705 4.37109 13.9153 4.37109 17.4765C4.37109 21.0378 4.37109 21.4928 4.45276 22.887C4.47464 23.9778 4.68026 25.054 5.0638 26.0763C5.40196 26.9481 5.91823 27.7397 6.57965 28.4006C7.24106 29.0615 8.03306 29.5772 8.90505 29.9147C9.92214 30.3131 10.9998 30.535 12.0915 30.5709C13.4959 30.6336 13.9407 30.6526 17.5019 30.6526C21.0632 30.6526 21.5196 30.6526 22.9123 30.5709C24.0019 30.5495 25.08 30.3428 26.1003 29.9599C26.9719 29.6217 27.7635 29.1055 28.4246 28.4444C29.0857 27.7833 29.6018 26.9917 29.9401 26.1201C30.3236 25.0993 30.5292 24.023 30.5511 22.9307C30.6138 21.5278 30.6328 21.083 30.6328 17.5203C30.6298 13.959 30.6298 13.507 30.5482 12.1113ZM17.4917 24.2111C13.7671 24.2111 10.7498 21.1938 10.7498 17.4693C10.7498 13.7447 13.7671 10.7274 17.4917 10.7274C19.2798 10.7274 20.9946 11.4377 22.2589 12.702C23.5233 13.9664 24.2336 15.6812 24.2336 17.4693C24.2336 19.2573 23.5233 20.9721 22.2589 22.2365C20.9946 23.5008 19.2798 24.2111 17.4917 24.2111ZM24.5019 12.0501C24.2954 12.0503 24.0909 12.0097 23.9001 11.9308C23.7093 11.8519 23.5359 11.7361 23.3899 11.5901C23.2439 11.444 23.1281 11.2707 23.0491 11.0798C22.9702 10.889 22.9297 10.6845 22.9298 10.478C22.9298 10.2716 22.9705 10.0673 23.0495 9.87667C23.1284 9.68603 23.2442 9.5128 23.3901 9.36689C23.536 9.22097 23.7092 9.10523 23.8999 9.02626C24.0905 8.94729 24.2948 8.90665 24.5012 8.90665C24.7076 8.90665 24.9119 8.94729 25.1025 9.02626C25.2932 9.10523 25.4664 9.22097 25.6123 9.36689C25.7582 9.5128 25.874 9.68603 25.9529 9.87667C26.0319 10.0673 26.0726 10.2716 26.0726 10.478C26.0726 11.3472 25.3696 12.0501 24.5019 12.0501Z" fill="white"/>
<path d="M17.4907 21.8486C19.9094 21.8486 21.8701 19.8879 21.8701 17.4692C21.8701 15.0506 19.9094 13.0898 17.4907 13.0898C15.072 13.0898 13.1113 15.0506 13.1113 17.4692C13.1113 19.8879 15.072 21.8486 17.4907 21.8486Z" fill="white"/>
<path d="M17.4907 21.8486C19.9094 21.8486 21.8701 19.8879 21.8701 17.4692C21.8701 15.0506 19.9094 13.0898 17.4907 13.0898C15.072 13.0898 13.1113 15.0506 13.1113 17.4692C13.1113 19.8879 15.072 21.8486 17.4907 21.8486Z" fill="white"/>
</svg>
