<svg width="35" height="35" viewBox="0 0 35 35" fill="none" xmlns="http://www.w3.org/2000/svg">
<path d="M27.7083 4.375H7.29167C5.68021 4.375 4.375 5.68021 4.375 7.29167V27.7083C4.375 29.3198 5.68021 30.625 7.29167 30.625H27.7083C29.3198 30.625 30.625 29.3198 30.625 27.7083V7.29167C30.625 5.68021 29.3198 4.375 27.7083 4.375ZM24.8646 13.8746C24.8646 14 24.8646 14.124 24.8646 14.3748C24.8646 19.1246 21.2392 24.6254 14.614 24.6254C12.6146 24.6254 10.7392 23.9998 9.11458 23.0008C9.36396 23.0008 9.74021 23.0008 9.98958 23.0008C11.6142 23.0008 13.2402 22.3752 14.49 21.5002C12.8654 21.5002 11.6156 20.3758 11.1154 19.0006C11.3648 19.0006 11.6156 19.126 11.741 19.126C12.1158 19.126 12.3667 19.126 12.7415 19.0006C11.1169 18.6258 9.86708 17.2506 9.86708 15.5006C10.3673 15.75 10.8675 15.8754 11.4917 16.0008C10.4913 15.1258 9.86708 14.1254 9.86708 12.8756C9.86708 12.25 9.9925 11.6258 10.3673 11.1256C12.1173 13.2504 14.7423 14.751 17.7421 14.875C17.7421 14.6256 17.6167 14.3748 17.6167 14C17.6167 12.0006 19.2413 10.3746 21.2421 10.3746C22.2425 10.3746 23.2415 10.7494 23.8671 11.499C24.7421 11.3735 25.4917 10.9987 26.1173 10.624C25.8679 11.499 25.2423 12.1246 24.4927 12.6233C25.2423 12.4979 25.8679 12.374 26.6175 11.9977C26.1144 12.7502 25.4902 13.3744 24.8646 13.8746Z" fill="white"/>
<path d="M27.7083 4.375H7.29167C5.68021 4.375 4.375 5.68021 4.375 7.29167V27.7083C4.375 29.3198 5.68021 30.625 7.29167 30.625H27.7083C29.3198 30.625 30.625 29.3198 30.625 27.7083V7.29167C30.625 5.68021 29.3198 4.375 27.7083 4.375ZM24.8646 13.8746C24.8646 14 24.8646 14.124 24.8646 14.3748C24.8646 19.1246 21.2392 24.6254 14.614 24.6254C12.6146 24.6254 10.7392 23.9998 9.11458 23.0008C9.36396 23.0008 9.74021 23.0008 9.98958 23.0008C11.6142 23.0008 13.2402 22.3752 14.49 21.5002C12.8654 21.5002 11.6156 20.3758 11.1154 19.0006C11.3648 19.0006 11.6156 19.126 11.741 19.126C12.1158 19.126 12.3667 19.126 12.7415 19.0006C11.1169 18.6258 9.86708 17.2506 9.86708 15.5006C10.3673 15.75 10.8675 15.8754 11.4917 16.0008C10.4913 15.1258 9.86708 14.1254 9.86708 12.8756C9.86708 12.25 9.9925 11.6258 10.3673 11.1256C12.1173 13.2504 14.7423 14.751 17.7421 14.875C17.7421 14.6256 17.6167 14.3748 17.6167 14C17.6167 12.0006 19.2413 10.3746 21.2421 10.3746C22.2425 10.3746 23.2415 10.7494 23.8671 11.499C24.7421 11.3735 25.4917 10.9987 26.1173 10.624C25.8679 11.499 25.2423 12.1246 24.4927 12.6233C25.2423 12.4979 25.8679 12.374 26.6175 11.9977C26.1144 12.7502 25.4902 13.3744 24.8646 13.8746Z" fill="white"/>
</svg>
